<?xml version="1.0" encoding="UTF-8" standalone="no"?>
<!-- Generator: Adobe Illustrator 19.0.0, SVG Export Plug-In . SVG Version: 6.00 Build 0)  -->

<svg
   xmlns:dc="http://purl.org/dc/elements/1.1/"
   xmlns:cc="http://creativecommons.org/ns#"
   xmlns:rdf="http://www.w3.org/1999/02/22-rdf-syntax-ns#"
   xmlns:svg="http://www.w3.org/2000/svg"
   xmlns="http://www.w3.org/2000/svg"
   xmlns:sodipodi="http://sodipodi.sourceforge.net/DTD/sodipodi-0.dtd"
   xmlns:inkscape="http://www.inkscape.org/namespaces/inkscape"
   version="1.1"
   id="Layer_1"
   x="0px"
   y="0px"
   viewBox="0 0 459.33803 511.998"
   xml:space="preserve"
   sodipodi:docname="delete1.svg"
   width="459.33801"
   height="511.99799"
   inkscape:version="0.92.5 (2060ec1f9f, 2020-04-08)"><metadata
   id="metadata49"><rdf:RDF><cc:Work
       rdf:about=""><dc:format>image/svg+xml</dc:format><dc:type
         rdf:resource="http://purl.org/dc/dcmitype/StillImage" /><dc:title></dc:title></cc:Work></rdf:RDF></metadata><defs
   id="defs47" /><sodipodi:namedview
   pagecolor="#ffffff"
   bordercolor="#666666"
   borderopacity="1"
   objecttolerance="10"
   gridtolerance="10"
   guidetolerance="10"
   inkscape:pageopacity="0"
   inkscape:pageshadow="2"
   inkscape:window-width="1920"
   inkscape:window-height="1016"
   id="namedview45"
   showgrid="false"
   inkscape:zoom="1.4152277"
   inkscape:cx="-90.329748"
   inkscape:cy="255.99901"
   inkscape:window-x="0"
   inkscape:window-y="27"
   inkscape:window-maximized="1"
   inkscape:current-layer="Layer_1" />
<polygon
   style="fill:#cff09e"
   points="82.918,106.177 178.652,106.177 178.652,462.067 110.276,462.067 "
   id="polygon2"
   transform="translate(-26.33)" />
<path
   style="fill:#507c5c"
   d="m 284.868,70.475 c -8.484,0 -15.365,-6.88 -15.365,-15.365 V 30.73 H 162.902 v 24.38 c 0,8.484 -6.88,15.365 -15.365,15.365 -8.485,0 -15.365,-6.88 -15.365,-15.365 V 15.365 C 132.173,6.88 139.053,0 147.537,0 h 137.331 c 8.484,0 15.365,6.88 15.365,15.365 V 55.11 c 0,8.486 -6.879,15.365 -15.365,15.365 z"
   id="path4"
   inkscape:connector-curvature="0" />
<path
   style="fill:#cff09e"
   d="M 353.722,319.948 370.113,106.179 H 274.38 v 267.369 c 13.255,-30.956 43.725,-52.828 79.342,-53.6 z"
   id="path6"
   inkscape:connector-curvature="0" />
<g
   id="g12"
   transform="translate(-26.33)">
	<path
   style="fill:#507c5c"
   d="m 470.304,392.923 c -8.484,0 -15.365,6.88 -15.365,15.365 0,40.242 -32.741,72.983 -72.983,72.983 -40.243,0 -72.984,-32.741 -72.984,-72.983 0,-34.479 24.522,-63.845 57.028,-71.208 0.011,-0.002 0.02,-0.005 0.031,-0.006 2.303,-0.521 4.645,-0.93 7.022,-1.223 0.048,-0.006 0.095,-0.011 0.143,-0.017 1.119,-0.135 2.245,-0.244 3.377,-0.329 0.081,-0.006 0.164,-0.014 0.246,-0.018 1.183,-0.083 2.374,-0.14 3.571,-0.166 8.077,-0.171 14.554,-6.544 15.005,-14.475 l 15.282,-199.302 h 26.991 c 8.484,0 15.365,-6.88 15.365,-15.365 0,-8.485 -6.88,-15.365 -15.365,-15.365 H 396.444 300.709 178.652 82.918 41.695 c -8.484,0 -15.365,6.88 -15.365,15.365 0,8.485 6.88,15.365 15.365,15.365 h 26.994 l 26.268,341.704 c 0.615,8.005 7.291,14.186 15.32,14.186 h 68.376 47.866 c 8.484,0 15.365,-6.88 15.365,-15.365 0,-8.484 -6.88,-15.365 -15.365,-15.365 H 194.018 V 121.542 h 91.327 v 248.965 c -4.648,11.891 -7.103,24.653 -7.103,37.779 0,57.188 46.526,103.712 103.714,103.712 57.188,0 103.712,-46.525 103.712,-103.712 10e-4,-8.484 -6.88,-15.363 -15.364,-15.363 z M 316.075,121.542 h 63.782 l -14.131,184.302 c -0.069,0.011 -0.137,0.026 -0.206,0.035 -0.931,0.147 -1.856,0.32 -2.781,0.492 -0.273,0.052 -0.545,0.103 -0.817,0.158 -16.835,3.283 -32.529,10.675 -45.846,21.666 V 121.542 Z M 163.287,446.703 H 124.505 L 99.509,121.542 h 63.779 v 325.161 z"
   id="path8"
   inkscape:connector-curvature="0" />
	<path
   style="fill:#507c5c"
   d="m 403.685,408.297 7.968,-7.968 c 6,-6 6,-15.729 0,-21.73 -6.001,-5.998 -15.727,-5.998 -21.73,0 l -7.968,7.968 -7.968,-7.968 c -5.998,-5.995 -15.724,-5.998 -21.73,0 -6,6 -6,15.729 0,21.73 l 7.968,7.968 -7.968,7.968 c -6,6 -6,15.729 0,21.73 3.001,2.999 6.933,4.5 10.864,4.5 3.932,0 7.864,-1.501 10.864,-4.5 l 7.968,-7.968 7.968,7.968 c 3.001,2.999 6.933,4.5 10.864,4.5 3.932,0 7.864,-1.501 10.864,-4.5 6,-6 6,-15.729 0,-21.73 z"
   id="path10"
   inkscape:connector-curvature="0" />
</g>
<g
   id="g14"
   transform="translate(-26.33)">
</g>
<g
   id="g16"
   transform="translate(-26.33)">
</g>
<g
   id="g18"
   transform="translate(-26.33)">
</g>
<g
   id="g20"
   transform="translate(-26.33)">
</g>
<g
   id="g22"
   transform="translate(-26.33)">
</g>
<g
   id="g24"
   transform="translate(-26.33)">
</g>
<g
   id="g26"
   transform="translate(-26.33)">
</g>
<g
   id="g28"
   transform="translate(-26.33)">
</g>
<g
   id="g30"
   transform="translate(-26.33)">
</g>
<g
   id="g32"
   transform="translate(-26.33)">
</g>
<g
   id="g34"
   transform="translate(-26.33)">
</g>
<g
   id="g36"
   transform="translate(-26.33)">
</g>
<g
   id="g38"
   transform="translate(-26.33)">
</g>
<g
   id="g40"
   transform="translate(-26.33)">
</g>
<g
   id="g42"
   transform="translate(-26.33)">
</g>
</svg>